<svg width="24" height="25" viewBox="0 0 24 25" fill="none" xmlns="http://www.w3.org/2000/svg">
<path d="M12.4849 23.8812C12.3168 23.8812 12.1514 23.9041 11.9887 23.9001C11.8515 23.9041 11.6861 23.9324 11.5193 23.9324C8.85652 23.9324 5.63696 23.4204 5.50114 23.4002C5.3532 23.3773 5.2241 23.2762 5.14879 23.1482C5.07348 23.0189 5.06003 22.8572 5.11248 22.717C5.82659 20.8105 5.55359 15.1621 5.30748 11.7599L5.06137 12.6209C5.02506 12.7475 4.94034 12.854 4.82603 12.9173C4.71037 12.9806 4.57454 12.9968 4.44947 12.9591C2.44566 12.381 0.930018 11.458 0.866811 11.419C0.70543 11.3193 0.61398 11.136 0.632808 10.946C0.99457 7.37941 3.55649 3.003 3.66543 2.8184C3.73132 2.70657 3.83891 2.62438 3.96398 2.59204L9.15642 1.21498C9.30435 1.1759 9.46304 1.20689 9.58408 1.30121C9.70511 1.39553 9.77639 1.53971 9.77639 1.69331C9.77639 2.88039 10.7326 3.77642 12.0008 3.77642C13.2689 3.77642 14.2251 2.88039 14.2251 1.69331C14.2251 1.53971 14.2964 1.39419 14.4174 1.30121C14.5398 1.20689 14.6972 1.1759 14.8451 1.21498L20.0362 2.59204C20.1613 2.62572 20.2688 2.70657 20.3347 2.8184C20.4437 3.003 23.0056 7.37941 23.3674 10.946C23.3862 11.136 23.2961 11.3193 23.1334 11.419C23.0702 11.458 21.5545 12.381 19.5507 12.9591C19.4256 12.9954 19.2898 12.9806 19.1741 12.9159C19.0598 12.8526 18.9751 12.7448 18.9388 12.6195L18.6927 11.7572C18.4466 15.1607 18.1749 20.8037 18.8877 22.7103C18.9401 22.8504 18.9267 23.0067 18.8514 23.1347C18.7761 23.2641 18.647 23.3517 18.499 23.3732C18.3632 23.3934 15.1437 23.8799 12.4809 23.8799L12.4849 23.8812ZM11.9887 22.8545C12.1675 22.8585 12.3249 22.876 12.4849 22.876C14.4309 22.876 16.7494 22.6066 17.7943 22.4664C16.9605 18.8715 17.8939 9.38841 17.9369 8.96262C17.9611 8.72548 18.148 8.54223 18.3847 8.52067C18.616 8.49911 18.8393 8.65002 18.9038 8.87908L19.7538 11.8609C20.9386 11.4715 21.9001 10.9784 22.348 10.7304C21.9445 7.82001 20.0429 4.31134 19.5857 3.4975L15.1544 2.32121C14.868 3.75216 13.6078 4.76812 12.0021 4.76812C10.3964 4.76812 9.13624 3.75216 8.84979 2.32121L4.41719 3.4975C3.9586 4.31134 2.05834 7.82001 1.65489 10.7304C2.10272 10.977 3.06697 11.4715 4.24909 11.8609L5.09903 8.87908C5.16358 8.65002 5.38279 8.50046 5.61814 8.52202C5.85483 8.54358 6.04311 8.72952 6.06597 8.96666C6.10901 9.39245 7.04233 18.8473 6.20852 22.4435C7.25481 22.5837 9.57332 22.8302 11.518 22.8302C11.6767 22.8302 11.834 22.8585 11.9873 22.8558L11.9887 22.8545Z" fill="#282828"/>
</svg>
