<svg width="24" height="25" viewBox="0 0 24 25" fill="none" xmlns="http://www.w3.org/2000/svg">
<path d="M17.9327 0.866455H6.06717C5.79416 0.866455 5.57227 1.08743 5.57227 1.3623V23.2349C5.57227 23.367 5.62471 23.495 5.72019 23.5879C5.81299 23.6796 5.93806 23.7308 6.06717 23.7308H6.07524L9.99948 23.6674C10.251 23.6634 10.4594 23.4707 10.4836 23.2201L11.9939 7.99833L13.3414 23.2807C13.3643 23.5367 13.5768 23.7321 13.8336 23.7321H17.9327C18.2057 23.7321 18.4276 23.5111 18.4276 23.2363V1.3623C18.4276 1.08878 18.2071 0.866455 17.9327 0.866455ZM17.4378 4.82786C17.0814 4.75106 16.7842 4.58532 16.5421 4.32258C15.9087 3.63809 15.7837 2.49144 15.7662 1.85681H17.4378V4.82786ZM8.12612 1.85815C8.09922 2.64504 7.87329 4.21344 6.56072 4.73758V1.85681H8.12612V1.85815ZM14.2868 22.7404L12.9783 7.91075C12.9312 7.37717 12.509 6.99046 11.9751 6.99046C11.4412 6.99046 11.0243 7.37447 10.9731 7.90266L9.54223 22.6852L6.56207 22.7337V5.77913C8.51612 5.26038 9.07961 3.2433 9.11861 1.85815H12.4942V4.50583C12.4942 5.10947 12.1337 5.64709 11.5756 5.8748C11.3228 5.9772 11.2004 6.2669 11.304 6.52021C11.382 6.71289 11.5662 6.82877 11.7612 6.82877C11.8231 6.82877 11.8863 6.81664 11.9482 6.79239C12.8801 6.41242 13.4826 5.51369 13.4826 4.50583V1.85681H14.7764C14.7952 2.62888 14.9552 4.06118 15.8146 4.99224C16.2449 5.4598 16.7909 5.73871 17.4378 5.83168V22.7391H14.2868V22.7404Z" fill="#282828"/>
</svg>
